<svg width="1000" height="1000" viewBox="0 0 1000 1000" fill="none" xmlns="http://www.w3.org/2000/svg">
<rect width="1000" height="1000" fill="#252257"/>
<path d="M377.919 86.5V914.064H102.5V86.5H377.919Z" fill="#F6F6F6" stroke="#252257"/>
<path d="M916.869 67V915.447H608.519V872.922C555.702 913.646 489.452 933.564 411.121 933.564C354.296 933.564 302.796 920.318 257.167 893.43C211.55 866.548 175.478 828.304 148.957 779.281L148.865 779.11L148.777 778.938C122.921 728.843 110.316 671.248 110.316 606.717C110.316 540.734 122.896 481.393 148.605 429.173L148.632 429.117L148.66 429.062C175.196 375.991 213.226 334.236 262.611 304.281C312.265 274.163 370.328 259.487 436.031 259.487C501.706 259.487 557.408 274.811 601.725 306.534V67H916.869ZM513.027 498.769C482.345 498.769 462.052 507.624 448.715 522.628C434.976 538.084 426.592 562.054 426.592 597.658C426.592 633.926 434.823 657.393 447.762 671.724C460.351 685.666 480.433 694.283 511.894 694.283C542.932 694.283 564.603 685.937 579.556 671.56L579.856 671.271L580.166 670.996C594.312 658.483 602.858 639.026 602.858 608.98V589.732C602.858 558.011 594.183 536.125 579.276 521.218C565.187 507.13 544.109 498.769 513.027 498.769Z" fill="#F6F6F6" stroke="#252257" stroke-width="40"/>
</svg>
