<svg width="679" height="264" viewBox="0 0 679 264" fill="none" xmlns="http://www.w3.org/2000/svg">
<path d="M588.7 106.035C589.266 111.984 591.32 116.376 594.862 119.209C598.403 121.901 603.716 123.247 610.799 123.247C621.14 123.247 627.444 120.413 629.711 114.747H677.097C671.147 141.663 648.623 155.121 609.524 155.121C587.424 155.121 570.354 150.162 558.313 140.246C546.272 130.188 540.251 115.809 540.251 97.1098C540.251 88.185 541.809 80.0394 544.926 72.673C548.042 65.1649 552.646 58.7192 558.738 53.336C564.829 47.8112 572.267 43.5613 581.05 40.5864C589.833 37.6115 599.749 36.124 610.799 36.124C632.332 36.124 648.906 41.2947 660.522 51.6361C672.28 61.9774 678.159 76.6395 678.159 95.6223V106.035H588.7ZM630.773 82.6602C630.49 77.5603 628.719 73.8063 625.461 71.398C622.203 68.8481 617.174 67.5731 610.374 67.5731C604.424 67.5731 599.537 68.9189 595.712 71.6105C592.029 74.3021 589.833 77.9853 589.124 82.6602H630.773Z" fill="#F6F6F6"/>
<path d="M466.698 151.721V0H518.334V151.721H466.698Z" fill="#F6F6F6"/>
<path d="M448.91 148.108C442.677 150.091 436.586 151.508 430.636 152.358C424.828 153.208 418.311 153.633 411.086 153.633C393.378 153.633 380.629 150.162 372.837 143.221C365.188 136.138 361.363 124.592 361.363 108.584V75.8602H340.113V39.5238H361.363V10.4121H412.999V39.5238H444.873V75.8602H412.999V103.697C412.999 108.23 414.061 111.488 416.186 113.472C418.453 115.455 422.207 116.447 427.448 116.447C431.84 116.447 436.94 115.597 442.748 113.897L448.91 148.108Z" fill="#F6F6F6"/>
<path d="M331.25 148.108C325.016 150.091 318.925 151.508 312.975 152.358C307.167 153.208 300.651 153.633 293.426 153.633C275.718 153.633 262.968 150.162 255.177 143.221C247.527 136.138 243.702 124.592 243.702 108.584V75.8602H222.453V39.5238H243.702V10.4121H295.338V39.5238H327.212V75.8602H295.338V103.697C295.338 108.23 296.401 111.488 298.526 113.472C300.792 115.455 304.546 116.447 309.788 116.447C314.179 116.447 319.279 115.597 325.087 113.897L331.25 148.108Z" fill="#F6F6F6"/>
<path d="M120.302 139.609L66.3281 39.5244H120.939L143.038 96.2603L164.288 39.5244H216.774L161.738 151.084C155.505 163.833 149.909 173.254 144.951 179.345C139.993 185.437 134.68 189.616 129.014 191.883C123.347 194.149 116.335 195.282 107.977 195.282C95.9356 195.282 84.5318 193.512 73.7654 189.97L80.7777 156.609C86.1609 158.167 91.8274 158.946 97.7772 158.946C102.31 158.946 105.923 158.025 108.614 156.184C111.448 154.342 114.281 150.871 117.114 145.771L120.302 139.609Z" fill="#F6F6F6"/>
<path d="M0 151.721V0H51.636V151.721H0Z" fill="#F6F6F6"/>
<path d="M313.888 244.9C311.528 244.9 309.408 244.38 307.528 243.34C305.648 242.26 304.148 240.62 303.028 238.42C301.948 236.18 301.408 233.32 301.408 229.84C301.408 226.32 302.028 223.42 303.268 221.14C304.508 218.82 306.148 217.1 308.188 215.98C310.228 214.82 312.448 214.24 314.848 214.24C316.248 214.24 317.588 214.38 318.868 214.66C320.148 214.94 321.288 215.36 322.288 215.92V208.12C322.288 207.28 322.148 206.66 321.868 206.26C321.628 205.86 321.088 205.58 320.248 205.42L319.108 205.18V204.58L330.028 201.94L330.688 202.48L330.448 210.88V240.22C330.448 241.02 330.588 241.68 330.868 242.2C331.148 242.68 331.668 243.02 332.428 243.22L332.968 243.4V244L322.708 244.66L322.168 242.5C321.088 243.22 319.848 243.8 318.448 244.24C317.088 244.68 315.568 244.9 313.888 244.9ZM317.368 242.68C319.048 242.68 320.588 242.18 321.988 241.18V217.36C320.508 216.4 318.988 215.92 317.428 215.92C315.508 215.92 313.868 217.04 312.508 219.28C311.148 221.48 310.468 224.96 310.468 229.72C310.468 234.48 311.108 237.84 312.388 239.8C313.668 241.72 315.328 242.68 317.368 242.68ZM353.081 214.24C355.681 214.24 357.901 214.78 359.741 215.86C361.581 216.9 362.981 218.34 363.941 220.18C364.941 221.98 365.441 224.04 365.441 226.36C365.441 226.8 365.421 227.26 365.381 227.74C365.341 228.18 365.261 228.58 365.141 228.94H347.261C347.301 233.26 348.061 236.38 349.541 238.3C351.061 240.18 353.301 241.12 356.261 241.12C358.261 241.12 359.881 240.8 361.121 240.16C362.361 239.52 363.521 238.58 364.601 237.34L365.201 237.88C363.961 240.08 362.301 241.8 360.221 243.04C358.181 244.28 355.721 244.9 352.841 244.9C350.001 244.9 347.481 244.3 345.281 243.1C343.081 241.86 341.361 240.1 340.121 237.82C338.881 235.54 338.261 232.82 338.261 229.66C338.261 226.38 338.981 223.6 340.421 221.32C341.861 219 343.701 217.24 345.941 216.04C348.221 214.84 350.601 214.24 353.081 214.24ZM352.901 215.44C351.741 215.44 350.741 215.8 349.901 216.52C349.101 217.2 348.461 218.44 347.981 220.24C347.541 222 347.301 224.5 347.261 227.74H357.521C357.921 223.38 357.761 220.24 357.041 218.32C356.321 216.4 354.941 215.44 352.901 215.44ZM384.037 244.18L373.417 218.68C372.857 217.32 371.897 216.42 370.537 215.98L369.697 215.74V215.14H385.237V215.74L384.157 215.98C382.597 216.38 382.117 217.42 382.717 219.1L389.017 235.84L394.897 219.22C395.217 218.42 395.297 217.76 395.137 217.24C394.977 216.72 394.497 216.34 393.697 216.1L392.197 215.74V215.14H400.897V215.74L399.157 216.16C398.397 216.36 397.797 216.66 397.357 217.06C396.957 217.46 396.617 218.06 396.337 218.86L387.517 244.18H384.037ZM418.291 214.24C420.891 214.24 423.111 214.78 424.951 215.86C426.791 216.9 428.191 218.34 429.151 220.18C430.151 221.98 430.651 224.04 430.651 226.36C430.651 226.8 430.631 227.26 430.591 227.74C430.551 228.18 430.471 228.58 430.351 228.94H412.471C412.511 233.26 413.271 236.38 414.751 238.3C416.271 240.18 418.511 241.12 421.471 241.12C423.471 241.12 425.091 240.8 426.331 240.16C427.571 239.52 428.731 238.58 429.811 237.34L430.411 237.88C429.171 240.08 427.511 241.8 425.431 243.04C423.391 244.28 420.931 244.9 418.051 244.9C415.211 244.9 412.691 244.3 410.491 243.1C408.291 241.86 406.571 240.1 405.331 237.82C404.091 235.54 403.471 232.82 403.471 229.66C403.471 226.38 404.191 223.6 405.631 221.32C407.071 219 408.911 217.24 411.151 216.04C413.431 214.84 415.811 214.24 418.291 214.24ZM418.111 215.44C416.951 215.44 415.951 215.8 415.111 216.52C414.311 217.2 413.671 218.44 413.191 220.24C412.751 222 412.511 224.5 412.471 227.74H422.731C423.131 223.38 422.971 220.24 422.251 218.32C421.531 216.4 420.151 215.44 418.111 215.44ZM435.284 244V243.4L436.004 243.16C437.444 242.68 438.164 241.68 438.164 240.16V208.06C438.164 207.26 438.004 206.66 437.684 206.26C437.364 205.82 436.804 205.5 436.004 205.3L435.224 205.12V204.52L446.204 201.94L446.924 202.48L446.684 210.88V231.4C446.684 232.88 446.684 234.36 446.684 235.84C446.724 237.28 446.744 238.72 446.744 240.16C446.744 240.96 446.904 241.62 447.224 242.14C447.544 242.62 448.084 242.98 448.844 243.22L449.624 243.4V244H435.284ZM469.852 244.9C466.812 244.9 464.172 244.28 461.932 243.04C459.692 241.76 457.952 239.96 456.712 237.64C455.512 235.32 454.912 232.6 454.912 229.48C454.912 226.36 455.552 223.66 456.832 221.38C458.152 219.1 459.932 217.34 462.172 216.1C464.452 214.86 467.012 214.24 469.852 214.24C472.692 214.24 475.232 214.86 477.472 216.1C479.712 217.3 481.472 219.04 482.752 221.32C484.072 223.6 484.732 226.32 484.732 229.48C484.732 232.64 484.112 235.38 482.872 237.7C481.672 239.98 479.952 241.76 477.712 243.04C475.512 244.28 472.892 244.9 469.852 244.9ZM469.852 243.7C471.252 243.7 472.372 243.3 473.212 242.5C474.052 241.7 474.652 240.28 475.012 238.24C475.412 236.2 475.612 233.32 475.612 229.6C475.612 225.84 475.412 222.94 475.012 220.9C474.652 218.86 474.052 217.44 473.212 216.64C472.372 215.84 471.252 215.44 469.852 215.44C468.452 215.44 467.312 215.84 466.432 216.64C465.592 217.44 464.972 218.86 464.572 220.9C464.212 222.94 464.032 225.84 464.032 229.6C464.032 233.32 464.212 236.2 464.572 238.24C464.972 240.28 465.592 241.7 466.432 242.5C467.312 243.3 468.452 243.7 469.852 243.7ZM489.181 257.8V257.2L489.901 256.96C491.381 256.56 492.121 255.6 492.121 254.08V221.44C492.121 220.56 491.961 219.9 491.641 219.46C491.361 219.02 490.821 218.72 490.021 218.56L489.181 218.38V217.78L499.381 214.3L499.981 214.9L500.521 216.76C501.841 215.96 503.301 215.34 504.901 214.9C506.541 214.46 508.221 214.24 509.941 214.24C513.381 214.24 516.101 215.56 518.101 218.2C520.141 220.8 521.161 224.54 521.161 229.42C521.161 234.22 520.041 238 517.801 240.76C515.601 243.52 512.481 244.9 508.441 244.9C505.281 244.9 502.621 244.44 500.461 243.52V253.9C500.461 255.5 501.181 256.5 502.621 256.9L503.761 257.2V257.8H489.181ZM505.561 243.16C507.561 243.16 509.141 242.12 510.301 240.04C511.501 237.96 512.101 234.5 512.101 229.66C512.101 224.82 511.541 221.44 510.421 219.52C509.301 217.56 507.681 216.58 505.561 216.58C504.081 216.58 502.441 217.06 500.641 218.02V242.2C502.161 242.84 503.801 243.16 505.561 243.16ZM526.269 244V243.4L527.109 243.16C527.869 242.96 528.389 242.62 528.669 242.14C528.989 241.66 529.169 241.02 529.209 240.22V221.44C529.209 220.56 529.069 219.92 528.789 219.52C528.509 219.08 527.969 218.78 527.169 218.62L526.269 218.38V217.78L536.529 214.3L537.129 214.9L537.609 218.98C538.929 217.66 540.429 216.54 542.109 215.62C543.829 214.7 545.609 214.24 547.449 214.24C549.369 214.24 550.909 214.64 552.069 215.44C553.229 216.2 554.109 217.4 554.709 219.04C556.269 217.56 557.949 216.4 559.749 215.56C561.589 214.68 563.369 214.24 565.089 214.24C567.929 214.24 570.009 214.92 571.329 216.28C572.689 217.64 573.369 219.78 573.369 222.7V240.28C573.369 241.84 574.089 242.82 575.529 243.22L576.189 243.4V244H562.329V243.4L562.929 243.22C563.689 242.98 564.209 242.62 564.489 242.14C564.809 241.66 564.969 241.02 564.969 240.22V221.86C564.969 220.18 564.669 219.04 564.069 218.44C563.469 217.8 562.509 217.48 561.189 217.48C560.149 217.48 559.129 217.72 558.129 218.2C557.169 218.64 556.149 219.32 555.069 220.24C555.269 220.88 555.389 221.58 555.429 222.34C555.509 223.1 555.549 223.9 555.549 224.74V240.28C555.589 241.84 556.309 242.82 557.709 243.22L558.249 243.4V244H544.329V243.4L545.169 243.16C545.929 242.92 546.449 242.58 546.729 242.14C547.049 241.66 547.209 241.02 547.209 240.22V221.92C547.209 220.32 546.909 219.18 546.309 218.5C545.749 217.82 544.769 217.48 543.369 217.48C542.449 217.48 541.529 217.72 540.609 218.2C539.689 218.64 538.729 219.3 537.729 220.18V240.28C537.729 241.84 538.429 242.82 539.829 243.22L540.369 243.4V244H526.269ZM595.994 214.24C598.594 214.24 600.814 214.78 602.654 215.86C604.494 216.9 605.894 218.34 606.854 220.18C607.854 221.98 608.354 224.04 608.354 226.36C608.354 226.8 608.334 227.26 608.294 227.74C608.254 228.18 608.174 228.58 608.054 228.94H590.174C590.214 233.26 590.974 236.38 592.454 238.3C593.974 240.18 596.214 241.12 599.174 241.12C601.174 241.12 602.794 240.8 604.034 240.16C605.274 239.52 606.434 238.58 607.514 237.34L608.114 237.88C606.874 240.08 605.214 241.8 603.134 243.04C601.094 244.28 598.634 244.9 595.754 244.9C592.914 244.9 590.394 244.3 588.194 243.1C585.994 241.86 584.274 240.1 583.034 237.82C581.794 235.54 581.174 232.82 581.174 229.66C581.174 226.38 581.894 223.6 583.334 221.32C584.774 219 586.614 217.24 588.854 216.04C591.134 214.84 593.514 214.24 595.994 214.24ZM595.814 215.44C594.654 215.44 593.654 215.8 592.814 216.52C592.014 217.2 591.374 218.44 590.894 220.24C590.454 222 590.214 224.5 590.174 227.74H600.434C600.834 223.38 600.674 220.24 599.954 218.32C599.234 216.4 597.854 215.44 595.814 215.44ZM613.744 244V243.4L614.584 243.16C615.984 242.76 616.684 241.78 616.684 240.22V221.44C616.684 220.56 616.544 219.92 616.264 219.52C615.984 219.08 615.444 218.78 614.644 218.62L613.744 218.38V217.78L624.004 214.3L624.604 214.9L625.084 218.5C626.484 217.26 628.064 216.24 629.824 215.44C631.584 214.64 633.324 214.24 635.044 214.24C637.684 214.24 639.704 214.96 641.104 216.4C642.544 217.84 643.264 220.04 643.264 223V240.28C643.264 241.84 644.024 242.82 645.544 243.22L646.084 243.4V244H631.924V243.4L632.704 243.16C634.104 242.72 634.804 241.74 634.804 240.22V221.08C634.804 218.52 633.524 217.24 630.964 217.24C629.204 217.24 627.284 218.12 625.204 219.88V240.28C625.204 241.84 625.904 242.82 627.304 243.22L627.844 243.4V244H613.744ZM661.939 244.9C659.379 244.9 657.379 244.26 655.939 242.98C654.539 241.7 653.839 239.66 653.839 236.86V216.34H649.699V215.74L651.139 215.5C652.379 215.22 653.439 214.82 654.319 214.3C655.239 213.78 656.139 213.08 657.019 212.2L661.939 206.74H662.539L662.359 215.14H669.079V216.34H662.299V237.94C662.299 239.34 662.599 240.4 663.199 241.12C663.839 241.84 664.639 242.2 665.599 242.2C666.439 242.2 667.179 242 667.819 241.6C668.459 241.16 669.099 240.58 669.739 239.86L670.339 240.46C669.539 241.82 668.439 242.9 667.039 243.7C665.639 244.5 663.939 244.9 661.939 244.9Z" fill="#F6F6F6"/>
</svg>
